<svg xmlns="http://www.w3.org/2000/svg" viewBox="0 0 24 24" fill="#FF9900"><path d="M6.763 10.036c0 .296.032.535.088.71.064.176.144.368.256.576.04.063.056.127.056.183 0 .08-.048.16-.152.24l-.503.335a.383.383 0 0 1-.208.072c-.08 0-.16-.04-.239-.112a2.47 2.47 0 0 1-.287-.374 6.18 6.18 0 0 1-.248-.47c-.622.734-1.405 1.101-2.347 1.101-.67 0-1.205-.191-1.596-.574-.391-.384-.59-.894-.59-1.533 0-.678.239-1.23.726-1.644.487-.415 1.133-.623 1.955-.623.272 0 .551.024.846.064.296.04.6.104.918.176v-.583c0-.607-.127-1.03-.375-1.277-.255-.248-.686-.367-1.3-.367-.28 0-.567.032-.863.104a6.37 6.37 0 0 0-.862.288 2.3 2.3 0 0 1-.28.104.488.488 0 0 1-.127.024c-.112 0-.168-.08-.168-.247v-.391c0-.128.016-.224.056-.28a.597.597 0 0 1 .224-.167 4.593 4.593 0 0 1 1.005-.36 4.84 4.84 0 0 1 1.246-.16c.95 0 1.644.216 2.091.647.44.43.662 1.085.662 1.963v2.586zm-3.24 1.214c.263 0 .534-.048.822-.144.287-.096.543-.271.758-.51.128-.152.224-.32.272-.512.047-.191.08-.423.08-.694v-.335a6.66 6.66 0 0 0-.735-.136 6.02 6.02 0 0 0-.75-.048c-.535 0-.926.104-1.19.32-.263.215-.39.518-.39.917 0 .375.095.655.295.846.191.2.47.296.838.296zm6.41.862c-.144 0-.24-.024-.304-.08-.064-.048-.12-.16-.168-.311L7.586 5.55a1.398 1.398 0 0 1-.072-.343c0-.136.064-.21.191-.21h.783c.151 0 .255.024.31.08.065.048.113.16.16.312l1.342 5.284 1.245-5.284c.04-.16.088-.264.151-.312a.549.549 0 0 1 .32-.08h.638c.152 0 .256.024.32.08.063.048.12.16.151.312l1.261 5.348 1.381-5.348c.048-.16.104-.264.16-.312a.52.52 0 0 1 .311-.08h.743c.128 0 .2.072.2.21 0 .04-.008.08-.016.128a1.137 1.137 0 0 1-.056.216l-1.923 6.17c-.048.16-.104.264-.168.312a.505.505 0 0 1-.303.08h-.687c-.151 0-.255-.024-.319-.08-.063-.056-.12-.16-.151-.32l-1.238-5.148-1.23 5.14c-.04.16-.087.264-.15.32-.065.056-.177.08-.32.08zm10.256.215c-.415 0-.83-.048-1.229-.143-.399-.096-.71-.2-.918-.32-.128-.071-.216-.151-.248-.223a.504.504 0 0 1-.048-.224v-.407c0-.167.064-.247.183-.247.048 0 .096.008.144.024s.12.064.2.107c.27.128.566.23.886.304.328.072.647.112.975.112.519 0 .918-.088 1.19-.264.271-.176.407-.431.407-.766a.87.87 0 0 0-.231-.615c-.152-.176-.44-.327-.862-.455l-1.238-.383c-.631-.2-1.1-.495-1.389-.886a2.09 2.09 0 0 1-.42-1.229c0-.351.072-.663.224-.926.152-.264.35-.495.607-.678.255-.192.543-.335.878-.432.336-.096.695-.144 1.07-.144.191 0 .39.008.59.032.208.024.399.056.59.096.183.04.36.08.527.128.168.048.296.096.39.144a.93.93 0 0 1 .28.176.37.37 0 0 1 .079.263v.375c0 .168-.064.256-.184.256a.83.83 0 0 1-.303-.096 3.652 3.652 0 0 0-1.532-.311c-.471 0-.846.072-1.11.224-.263.152-.399.383-.399.702 0 .224.08.415.247.567.168.152.479.303.926.439l1.213.375c.623.2 1.078.479 1.357.838.28.36.415.774.415 1.229 0 .36-.072.686-.207.975-.144.288-.336.543-.583.758a2.592 2.592 0 0 1-.894.495c-.351.12-.734.176-1.158.176z"/><path fill="#FF9900" d="M21.365 16.575c-2.63 1.94-6.442 2.969-9.726 2.969-4.598 0-8.74-1.7-11.87-4.526-.247-.224-.024-.527.271-.351 3.384 1.963 7.559 3.153 11.877 3.153 2.91 0 6.114-.607 9.061-1.852.44-.2.814.288.387.607z"/><path fill="#FF9900" d="M22.477 15.318c-.336-.43-2.22-.207-3.074-.104-.255.032-.295-.192-.063-.36 1.5-1.053 3.967-.75 4.254-.398.287.36-.08 2.826-1.485 4.007-.216.184-.423.088-.327-.152.32-.79 1.03-2.57.695-2.993z"/></svg>
